<?xml version="1.0" encoding="UTF-8" standalone="no"?>
<svg
   version="1.1"
   width="149px"
   height="150px"
   style="shape-rendering:geometricPrecision; text-rendering:geometricPrecision; image-rendering:optimizeQuality; fill-rule:evenodd; clip-rule:evenodd"
   id="svg1942"
   sodipodi:docname="play-on.svg"
   inkscape:version="1.2.1 (9c6d41e410, 2022-07-14)"
   xmlns:inkscape="http://www.inkscape.org/namespaces/inkscape"
   xmlns:sodipodi="http://sodipodi.sourceforge.net/DTD/sodipodi-0.dtd"
   xmlns="http://www.w3.org/2000/svg"
   xmlns:svg="http://www.w3.org/2000/svg">
  <defs
     id="defs1946" />
  <sodipodi:namedview
     id="namedview1944"
     pagecolor="#ffffff"
     bordercolor="#000000"
     borderopacity="0.25"
     inkscape:showpageshadow="2"
     inkscape:pageopacity="0.0"
     inkscape:pagecheckerboard="0"
     inkscape:deskcolor="#d1d1d1"
     showgrid="false"
     inkscape:zoom="3.9079435"
     inkscape:cx="58.214762"
     inkscape:cy="103.37918"
     inkscape:window-width="1920"
     inkscape:window-height="1009"
     inkscape:window-x="-8"
     inkscape:window-y="-8"
     inkscape:window-maximized="1"
     inkscape:current-layer="svg1942" />
  <path
     d="M 114.6892,111.11376 H 32.28645 c 0,-19.731522 11.626239,-18.624409 11.626239,-29.684467 0,-3.570163 0,-19.283829 0,-19.283829 0,-15.700327 7.822324,-26.051688 20.491353,-29.298609 0.464093,-4.565839 4.356396,-8.136379 9.089852,-8.136379 4.721513,0 8.613039,3.57054 9.077911,8.136379 12.668256,3.234707 20.491355,13.598282 20.491355,29.298609 0,0 0,15.713666 0,19.283829 0,11.060058 11.62604,9.952945 11.62604,29.684467"
     style="fill:#fffec4;fill-opacity:1;fill-rule:nonzero;stroke:none;stroke-width:0.0383384"
     id="path2242" />
  <path
     d="M 114.69152,111.11259 H 32.284484 c 0,-1.21734 0.04662,-2.35957 0.128172,-3.42706 h 71.954994 c 0,-19.888716 -11.628737,-18.775123 -11.628737,-29.922571 0,-3.60031 0,-19.433051 0,-19.433051 0,-15.82625 -13.067652,-27.361072 -25.738601,-30.620963 -0.139811,-1.35593 4.671061,-1.545982 4.001292,-2.659199 0.791861,-0.219446 1.624552,-0.340801 2.49229,-0.340801 4.722279,0 8.612265,3.572071 9.077911,8.135619 12.670936,3.236998 20.491355,13.599427 20.491355,29.299367 0,0 0,15.717108 0,19.283072 0,11.060815 11.62836,9.952954 11.62836,29.685587"
     style="fill:#f9d67a;fill-opacity:1;fill-rule:nonzero;stroke:none;stroke-width:0.0383384"
     id="path2244" />
  <path
     d="m 90.537793,111.28581 c 0,0 -1.653823,16.09232 -17.829984,16.09232 -4.239317,0 -7.389434,-1.10791 -9.724577,-2.74672 -6.568291,-4.59281 -6.713877,-13.3456 -6.713877,-13.3456 h 34.268438"
     style="fill:#fffec4;fill-opacity:1;fill-rule:nonzero;stroke:none;stroke-width:0.0383384"
     id="path2246" />
  <path
     d="m 90.537793,111.28581 c 0,0 -1.653823,16.09232 -17.829984,16.09232 -4.239317,0 -7.389434,-1.10791 -9.724577,-2.74672 0.466026,-0.14413 1.054144,-0.24221 1.770521,-0.27698 0.102084,-0.006 0.203743,-0.0109 0.305801,-0.0175 6.847529,-0.44528 7.272343,-10.29527 0.498003,-11.37903 -4.527409,-0.72438 -8.087316,-1.29728 -8.158574,-1.34304 l -0.22107,-0.329 h 33.35988"
     style="fill:#f9d67a;fill-opacity:1;fill-rule:nonzero;stroke:none;stroke-width:0.0383384"
     id="path2248" />
  <path
     d="M 90.406847,109.67116 H 33.764292 c 0.304807,-9.699161 3.690055,-13.677287 6.692697,-17.206994 2.525721,-2.968712 4.911554,-5.772944 4.911554,-11.034873 V 62.145464 c 0,-14.572605 7.070904,-24.74232 19.399839,-27.902218 0.59005,-0.151136 1.02257,-0.65069 1.083808,-1.251755 0.396699,-3.898755 3.681615,-6.83845 7.641704,-6.83845 3.952754,0 7.232288,2.939695 7.629369,6.838837 0.06125,0.601065 0.494139,1.101005 1.084965,1.25174 12.328163,3.1477 19.398692,13.317801 19.398692,27.901846 v 19.283829 c 0,5.261929 2.38559,8.066161 4.91177,11.034873 3.00299,3.529707 6.38804,7.507833 6.69309,17.206994 z m -16.912953,16.75828 c -8.038405,0 -14.66409,-6.10241 -15.401253,-13.87322 h 30.790171 c -0.735625,7.77081 -7.356681,13.87322 -15.388918,13.87322 z M 104.51863,81.429293 V 62.145464 c 0,-15.637731 -7.509599,-26.676808 -20.6485,-30.442366 -0.970571,-4.873424 -5.26573,-8.4352 -10.376236,-8.4352 -5.117447,0 -9.418,3.562149 -10.388953,8.436345 C 49.96719,35.481256 42.457018,46.520704 42.457018,62.145464 v 19.283829 c 0,4.20825 -1.864956,6.400345 -4.225909,9.175566 -3.297088,3.875081 -7.400559,8.698514 -7.400559,20.508901 0,0.79682 0.651746,1.44246 1.455747,1.44246 h 22.890004 c 0.745646,9.3634 8.673512,16.75793 18.317593,16.75793 9.637915,0 17.560387,-7.39453 18.305639,-16.75793 h 22.890047 c 0.80419,0 1.45586,-0.64564 1.45586,-1.44246 0,-11.810387 -4.10374,-16.63382 -7.40059,-20.508901 -2.36096,-2.775221 -4.22622,-4.967316 -4.22622,-9.175566"
     style="fill:#b58100;fill-opacity:1;fill-rule:nonzero;stroke:none;stroke-width:0.0383384"
     id="path2250" />
  <path
     d="m 98.341251,22.398163 c -0.65667,-0.458333 -1.566,-0.302631 -2.02819,0.348819 -0.46293,0.651062 -0.30541,1.550948 0.35203,2.009668 10.375089,7.238397 16.568639,19.055231 16.568639,31.609763 0,3.538111 -0.48259,7.043778 -1.43468,10.419298 -0.21606,0.767464 0.2361,1.562789 1.01062,1.777267 0.13134,0.03629 0.26268,0.05341 0.39209,0.05341 0.63703,0 1.22168,-0.417114 1.40193,-1.054445 1.02295,-3.628169 1.54175,-7.394873 1.54175,-11.195539 0,-13.492202 -6.65572,-26.190597 -17.804189,-33.96825"
     style="fill:#b58100;fill-opacity:1;fill-rule:nonzero;stroke:none;stroke-width:0.0383384"
     id="path2252" />
  <path
     d="m 107.8667,11.31559 c -0.64512,-0.474369 -1.55791,-0.339655 -2.03626,0.300726 -0.47875,0.639994 -0.34279,1.543317 0.3031,2.0173 13.61571,9.992635 21.74424,25.967344 21.74424,42.732797 0,4.238396 -0.50492,8.456576 -1.50092,12.537351 -0.18911,0.773949 0.29117,1.553626 1.07264,1.741 0.11474,0.02747 0.23032,0.04044 0.34355,0.04044 0.65667,0 1.2525,-0.443444 1.41348,-1.103669 1.0503,-4.302511 1.58258,-8.748526 1.58258,-13.21513 0,-17.675262 -8.56875,-34.517041 -22.92241,-45.050823"
     style="fill:#b58100;fill-opacity:1;fill-rule:nonzero;stroke:none;stroke-width:0.0383384"
     id="path2254" />
  <path
     d="m 50.322687,24.75665 c 0.657444,-0.45872 0.814962,-1.358606 0.352025,-2.009668 -0.462566,-0.65145 -1.370742,-0.807538 -2.028186,-0.348819 -11.148269,7.778039 -17.803759,20.476434 -17.803759,33.96825 0,3.801424 0.518715,7.56813 1.541624,11.195538 0.17979,0.637331 0.764588,1.054445 1.401278,1.054445 0.129525,0 0.261475,-0.01711 0.392508,-0.0534 0.77437,-0.214476 1.226608,-1.009789 1.010277,-1.777252 -0.951585,-3.374762 -1.434096,-6.880429 -1.434096,-10.419298 0,-12.554532 6.193819,-24.371367 16.568329,-31.609763"
     style="fill:#b58100;fill-opacity:1;fill-rule:nonzero;stroke:none;stroke-width:0.0383384"
     id="path2256" />
  <path
     d="m 19.110375,56.366413 c 0,-16.765453 8.128526,-32.740162 21.743784,-42.732797 0.646308,-0.473983 0.782035,-1.377306 0.303454,-2.0173 C 40.679337,10.975935 39.767044,10.841221 39.12161,11.31559 24.768267,21.849386 16.198908,38.690779 16.198908,56.366413 c 0,4.466618 0.532256,8.912619 1.582256,13.215129 0.161107,0.660612 0.757196,1.103683 1.413911,1.103683 0.113067,0 0.228349,-0.01242 0.343175,-0.04044 0.781724,-0.187388 1.261969,-0.967051 1.073128,-1.741 C 19.615424,64.822997 19.110375,60.60483 19.110375,56.36642"
     style="fill:#b58100;fill-opacity:1;fill-rule:nonzero;stroke:none;stroke-width:0.0383384"
     id="path2258" />
</svg>
